<?xml version="1.0" standalone="no"?>
<!DOCTYPE svg PUBLIC "-//W3C//DTD SVG 20010904//EN"
 "http://www.w3.org/TR/2001/REC-SVG-20010904/DTD/svg10.dtd">
<svg version="1.0" xmlns="http://www.w3.org/2000/svg"
 width="1104.000000pt" height="1104.000000pt" viewBox="0 0 1104.000000 1104.000000"
 preserveAspectRatio="xMidYMid meet">
<metadata>
Created by potrace 1.14, written by Peter Selinger 2001-2017
</metadata>
<g transform="translate(0.000000,1104.000000) scale(0.100000,-0.100000)"
fill="#000000" stroke="none">
<path d="M4866 9723 c3 -109 8 -241 9 -293 3 -99 16 -467 19 -557 1 -29 5 -55
9 -59 11 -11 98 -10 105 1 6 10 5 166 -3 288 -3 52 -2 57 18 56 12 0 101 2
197 6 l176 5 63 -85 c35 -48 69 -92 75 -98 7 -7 23 -28 36 -47 13 -19 27 -37
30 -40 3 -3 18 -22 33 -43 28 -37 29 -37 92 -35 40 1 61 6 57 13 -14 24 -246
331 -255 336 -16 11 0 39 21 39 11 0 25 7 32 15 7 8 17 15 22 15 5 0 30 21 54
46 73 75 104 161 99 278 -7 138 -65 231 -184 297 -93 51 -148 59 -444 59
l-268 0 7 -197z m604 65 c72 -33 103 -62 133 -123 31 -63 36 -162 11 -226 -23
-60 -91 -122 -161 -149 -59 -23 -109 -28 -330 -33 l-123 -4 -1 36 c0 40 -6
192 -13 376 -3 66 -2 126 2 132 9 14 91 18 292 17 123 0 140 -3 190 -26z"/>
<path d="M6075 9888 c8 -18 37 -89 65 -158 29 -69 58 -138 66 -155 7 -16 37
-86 65 -155 28 -69 62 -149 75 -178 13 -29 24 -59 24 -67 0 -7 5 -17 11 -21
10 -6 8 -56 -6 -139 -7 -43 -14 -84 -21 -130 -3 -22 -9 -56 -13 -76 -5 -21 -6
-41 -2 -46 10 -15 111 -32 112 -19 3 23 8 52 12 72 3 12 8 45 12 74 4 29 9 62
11 74 2 12 7 43 10 70 7 57 17 87 36 107 8 8 38 43 67 78 29 35 58 70 64 76
16 16 55 62 91 105 16 19 52 62 81 95 150 172 223 261 219 267 -3 5 -18 8 -34
8 -16 0 -31 4 -34 9 -11 18 -47 -2 -78 -43 -18 -22 -35 -43 -38 -46 -3 -3 -35
-39 -70 -80 -35 -41 -69 -80 -74 -86 -6 -7 -25 -29 -43 -50 -18 -22 -44 -52
-58 -69 -14 -16 -45 -52 -68 -79 -23 -27 -52 -60 -64 -74 l-22 -26 -25 58
c-14 32 -26 61 -26 65 0 3 -9 23 -20 44 -11 20 -21 40 -21 44 -3 15 -99 249
-145 350 -13 29 -26 64 -30 78 -8 32 -25 41 -91 49 l-53 6 15 -32z"/>
<path d="M4299 9836 c-2 -2 -17 -6 -34 -9 -16 -3 -37 -8 -45 -11 -8 -3 -26 -8
-40 -10 -27 -5 -130 -29 -310 -71 -63 -14 -119 -27 -125 -29 -5 -1 -50 -11
-98 -21 l-88 -20 5 -30 c6 -32 12 -57 27 -117 5 -21 14 -57 19 -80 6 -24 12
-52 15 -63 3 -11 7 -29 9 -40 4 -17 46 -195 63 -265 3 -14 7 -32 9 -40 3 -12
79 -330 88 -365 2 -5 6 -27 10 -47 7 -32 12 -37 30 -33 11 3 62 14 111 26 50
11 101 23 115 25 14 3 40 9 58 15 18 6 43 12 55 14 34 5 78 15 122 27 40 10
55 14 98 23 12 2 36 8 52 12 17 4 32 7 35 8 54 11 109 29 105 34 -2 4 -7 23
-10 41 -10 57 -2 55 -121 26 -34 -8 -72 -17 -85 -20 -31 -6 -34 -7 -219 -50
-85 -20 -164 -38 -175 -40 -11 -2 -32 -7 -47 -11 -25 -6 -28 -4 -39 37 -6 23
-13 52 -14 63 -2 11 -14 63 -28 115 -14 52 -29 114 -35 137 l-10 42 57 12 c31
7 61 14 66 15 71 19 236 56 257 57 16 1 28 5 28 10 0 4 3 6 8 5 12 -3 128 23
142 32 8 5 9 13 4 21 -5 8 -10 25 -12 39 -2 14 -6 28 -10 31 -4 3 -59 -7 -122
-22 -63 -16 -128 -31 -145 -34 -16 -3 -75 -17 -130 -30 -55 -13 -115 -26 -134
-27 -37 -3 -36 -5 -55 89 -7 34 -45 193 -56 234 -6 20 -10 39 -10 41 0 7 193
56 280 71 14 3 45 10 70 17 25 7 54 14 65 16 11 2 63 14 115 26 88 20 115 32
105 48 -2 4 -7 22 -10 41 -6 35 -9 41 -16 35z"/>
<path d="M8055 9398 c-21 -51 -41 -96 -45 -101 -4 -5 -90 114 -116 161 -4 8
-55 -20 -60 -33 -5 -13 82 -137 109 -156 18 -12 1 -33 -29 -35 -16 -2 -56 -6
-89 -10 -33 -3 -66 -6 -72 -7 -7 0 -14 -7 -15 -16 -5 -53 -3 -56 27 -55 36 0
142 12 173 18 28 6 28 -1 -2 -66 -28 -61 -56 -129 -56 -134 0 -2 13 -10 30
-19 28 -14 30 -14 42 7 7 13 18 37 24 53 26 67 48 120 51 124 4 6 30 -23 68
-74 17 -22 33 -42 36 -45 3 -3 11 -15 18 -27 15 -29 23 -29 57 0 l27 23 -67
83 c-36 46 -66 86 -66 90 0 4 10 7 23 8 31 1 138 13 162 17 11 3 22 5 25 5 10
2 5 71 -5 72 -11 2 -12 1 -52 -5 -15 -2 -55 -7 -88 -11 -32 -4 -63 -9 -68 -12
-4 -2 -6 6 -4 19 4 24 9 37 37 103 32 76 32 91 4 103 -14 7 -29 12 -33 12 -5
0 -25 -42 -46 -92z"/>
<path d="M2551 9273 c-1 -7 -6 -13 -12 -13 -9 0 -75 -27 -87 -36 -2 -1 1 -10
6 -21 6 -10 20 -40 33 -68 12 -27 26 -57 31 -65 4 -8 11 -22 15 -30 31 -72
219 -482 318 -694 20 -43 40 -89 45 -102 12 -29 19 -30 78 -3 26 12 72 33 102
47 30 13 82 37 115 52 200 91 333 150 341 150 5 0 19 8 32 18 22 17 22 19 8
54 -9 20 -20 39 -25 42 -5 3 -49 -13 -97 -35 -130 -60 -174 -80 -219 -99 -22
-9 -60 -26 -85 -38 -82 -37 -162 -72 -166 -72 -3 0 -25 46 -104 215 -10 22
-39 84 -64 138 -25 55 -46 100 -46 102 0 2 -24 54 -54 116 -29 63 -65 139 -79
169 -62 136 -86 184 -86 173z"/>
<path d="M9180 8700 c-19 -4 -51 -14 -70 -24 -40 -21 -120 -95 -120 -111 0 -6
-5 -16 -12 -23 -15 -15 -21 -45 -21 -97 1 -35 8 -85 14 -92 1 -2 2 -7 3 -11 3
-19 99 -173 155 -247 129 -172 147 -259 73 -339 -86 -92 -240 -62 -380 73 -91
89 -162 212 -162 281 0 24 -12 25 -62 3 -38 -17 -39 -18 -33 -58 13 -75 79
-193 165 -291 89 -103 245 -184 351 -184 58 0 136 24 167 53 12 11 22 17 22
12 0 -11 59 65 77 99 23 43 24 132 3 189 -18 46 -99 184 -124 209 -6 7 -23 29
-36 48 -13 19 -27 37 -30 40 -3 3 -20 28 -36 55 -33 54 -55 127 -49 160 2 11
4 25 4 31 1 16 61 79 89 93 62 32 160 17 247 -37 72 -46 164 -148 197 -220 17
-37 33 -69 35 -71 1 -2 21 4 43 14 48 22 51 41 14 111 -68 128 -173 232 -298
293 -84 42 -153 54 -226 41z"/>
<path d="M1484 8596 c-38 -29 -40 -34 -28 -52 30 -42 49 -66 66 -86 10 -12 18
-24 18 -27 0 -4 18 -27 40 -51 22 -25 40 -48 40 -52 0 -4 6 -13 13 -20 6 -7
25 -31 42 -53 16 -22 33 -44 37 -50 5 -5 32 -41 61 -80 231 -306 303 -400 309
-403 5 -2 8 -10 8 -17 0 -7 7 -16 16 -19 15 -6 38 9 240 159 22 16 53 39 68
50 16 11 33 25 40 30 6 6 49 38 96 72 47 35 98 73 114 85 16 13 33 26 39 29
11 7 -39 79 -55 79 -8 0 -47 -25 -87 -57 -9 -7 -63 -47 -121 -90 -58 -43 -147
-109 -199 -147 -90 -67 -94 -69 -108 -50 -7 10 -22 30 -33 44 -10 14 -71 95
-135 180 -64 85 -122 162 -128 170 -7 8 -53 68 -102 134 -173 228 -190 250
-200 252 -5 2 -29 -12 -51 -30z"/>
<path d="M10080 8035 c-7 -8 -18 -15 -24 -15 -6 0 -17 -9 -24 -21 -11 -17 -11
-24 0 -39 7 -10 51 -71 98 -137 46 -65 88 -119 92 -121 25 -11 1 -43 -64 -87
-40 -27 -92 -63 -114 -80 -23 -16 -52 -37 -64 -45 -12 -8 -33 -23 -45 -32 -13
-10 -28 -18 -34 -18 -6 0 -11 -4 -11 -9 0 -5 -19 -21 -42 -35 -24 -14 -83 -55
-133 -90 -49 -36 -138 -98 -197 -138 -59 -40 -108 -77 -108 -82 0 -5 11 -23
23 -40 13 -17 26 -37 28 -45 4 -12 112 56 359 230 47 32 117 81 155 107 39 26
72 49 75 52 3 3 34 25 70 50 87 58 124 84 130 90 3 3 17 13 32 23 l27 17 33
-47 c18 -26 40 -57 48 -69 98 -143 137 -193 150 -193 15 0 70 43 70 54 0 7
-108 165 -120 175 -3 3 -25 34 -49 70 -25 36 -48 67 -53 68 -4 2 -8 8 -8 13 0
6 -19 36 -42 67 -24 31 -47 64 -53 73 -19 32 -110 161 -151 215 -36 45 -44 51
-54 39z"/>
<path d="M701 7781 l-32 -48 32 -59 c18 -33 43 -79 57 -104 44 -82 57 -105 62
-110 3 -3 18 -30 34 -60 16 -30 85 -156 154 -280 69 -124 143 -259 165 -300
22 -41 48 -87 58 -102 11 -14 19 -31 19 -37 0 -22 17 -10 50 35 37 52 40 39
-40 179 -22 39 -49 89 -61 112 l-22 42 49 65 c27 35 57 75 66 88 161 218 256
333 274 331 60 -7 97 -14 105 -19 5 -3 22 -7 37 -9 44 -6 85 -14 118 -24 37
-10 39 -9 83 46 23 30 29 44 19 47 -27 8 -164 39 -193 43 -16 2 -48 9 -70 15
-22 6 -51 12 -65 14 -14 2 -46 8 -71 14 -26 6 -53 13 -60 14 -8 2 -30 6 -49
10 -19 4 -44 9 -55 11 -11 2 -20 4 -20 5 0 1 -9 3 -20 5 -11 2 -36 7 -55 11
-19 4 -41 8 -49 10 -7 1 -35 8 -61 14 -27 6 -59 13 -72 15 -20 3 -232 49 -283
61 -65 16 -70 14 -104 -35z m214 -100 c28 -6 62 -13 77 -15 15 -3 31 -7 35 -9
5 -3 25 -8 46 -11 21 -3 66 -13 100 -21 34 -8 103 -24 152 -35 122 -28 119
-27 103 -43 -7 -8 -22 -26 -33 -41 -11 -16 -31 -43 -45 -61 -14 -18 -34 -45
-44 -60 -11 -14 -27 -35 -35 -45 -9 -11 -27 -36 -41 -55 -14 -20 -37 -50 -52
-68 -15 -18 -30 -40 -34 -49 -8 -26 -29 -22 -45 10 -7 15 -23 43 -35 62 -11
19 -36 62 -54 95 -45 82 -70 128 -119 212 -22 40 -41 75 -41 78 0 3 -10 19
-21 34 -25 34 -18 54 14 42 12 -5 45 -14 72 -20z"/>
<path d="M5894 7421 c-26 -12 -70 -54 -133 -127 -52 -60 -99 -113 -105 -119
-6 -5 -36 -39 -66 -75 -30 -35 -62 -71 -70 -80 -8 -9 -42 -47 -75 -84 -33 -38
-65 -74 -70 -80 -6 -6 -53 -60 -105 -121 -52 -60 -102 -116 -110 -125 -25 -27
-92 -103 -150 -170 -30 -35 -60 -68 -65 -74 -6 -6 -39 -45 -75 -86 -36 -41
-69 -80 -75 -86 -5 -6 -39 -44 -75 -84 -36 -40 -69 -78 -75 -84 -5 -6 -39 -45
-74 -86 -36 -41 -70 -79 -75 -85 -6 -5 -38 -41 -71 -80 -52 -61 -88 -102 -145
-164 -8 -10 -42 -48 -75 -86 -33 -38 -67 -77 -75 -85 -14 -15 -92 -104 -140
-160 -50 -57 -127 -145 -153 -173 -16 -17 -34 -39 -42 -50 -7 -11 -28 -20 -47
-22 -82 -8 -351 -26 -431 -30 -58 -2 -62 -3 -61 -26 1 -65 53 -265 78 -304 8
-12 28 -28 46 -37 l31 -15 -34 -41 c-19 -23 -41 -47 -48 -55 -8 -8 -39 -43
-70 -78 -246 -280 -319 -365 -319 -375 0 -6 9 -19 20 -29 20 -18 21 -18 63 21
23 22 65 61 92 86 60 55 107 98 173 158 27 25 91 83 142 130 51 47 106 97 122
112 17 16 33 26 37 24 27 -17 399 -24 566 -11 50 4 113 8 140 10 55 3 148 13
210 21 22 3 51 7 65 9 14 2 50 7 80 11 30 4 66 9 80 10 14 1 25 3 25 4 0 3 38
10 84 15 40 4 116 17 181 30 14 3 39 7 55 10 17 3 41 8 55 10 14 3 34 7 45 9
11 2 65 14 120 25 55 12 111 24 125 26 14 3 124 30 245 61 121 30 229 57 240
59 56 12 606 186 615 195 3 3 12 6 21 7 8 2 61 21 118 43 56 22 109 40 117 40
8 0 14 5 14 10 0 6 7 10 15 10 8 0 23 4 33 10 34 19 117 53 130 53 6 0 12 4
12 9 0 4 5 8 10 8 6 0 66 28 133 62 67 33 132 66 144 72 13 6 23 14 23 19 0 4
5 7 12 7 28 0 247 159 322 234 64 64 85 92 97 130 23 73 16 204 -17 326 -19
71 -65 200 -71 200 -3 0 -40 -25 -83 -55 -43 -30 -83 -55 -88 -55 -6 0 -12 -3
-14 -8 -3 -7 -132 -92 -198 -130 -19 -11 -69 -39 -110 -64 -64 -38 -184 -103
-320 -174 -19 -10 -42 -19 -50 -20 -8 -2 -16 -8 -18 -13 -2 -6 -8 -11 -12 -11
-5 0 -48 -18 -97 -41 -48 -22 -115 -52 -148 -66 -33 -14 -78 -33 -100 -43 -22
-10 -83 -35 -135 -55 -52 -19 -104 -40 -115 -45 -11 -5 -63 -23 -115 -40 -52
-17 -102 -35 -111 -40 -9 -5 -33 -12 -53 -15 -20 -4 -39 -11 -42 -16 -3 -5 -9
-7 -14 -4 -5 3 -17 1 -27 -4 -15 -9 -61 -23 -118 -37 -5 -1 -37 -10 -70 -19
-63 -18 -375 -94 -410 -100 -11 -2 -31 -6 -45 -9 -53 -12 -186 -39 -200 -41
-8 -1 -28 -5 -45 -8 -16 -4 -43 -9 -60 -12 -16 -3 -41 -7 -55 -10 -47 -10
-312 -54 -319 -53 -3 0 -8 0 -11 -2 -3 -1 -17 -3 -33 -5 -15 -2 -60 -8 -100
-14 -39 -6 -94 -13 -121 -17 -28 -3 -53 -7 -58 -10 -4 -3 -8 -1 -8 5 0 5 4 11
9 13 7 3 123 108 256 233 24 22 63 57 86 79 24 21 74 66 110 100 222 207 231
213 273 200 11 -4 36 -19 55 -33 23 -17 46 -26 73 -26 34 0 45 7 75 40 19 22
54 61 76 86 23 25 74 81 112 124 39 43 86 96 105 117 19 20 55 60 80 89 25 28
59 66 75 83 36 39 172 190 195 215 8 10 49 55 90 101 41 46 82 91 90 100 30
34 146 163 180 200 19 21 62 68 95 106 33 37 71 79 84 93 58 63 73 91 75 134
0 25 -6 54 -16 69 -16 24 -230 193 -275 217 -38 20 -97 21 -139 2z m-2069
-2576 c21 -26 24 -39 19 -71 -6 -39 -44 -83 -74 -85 -61 -6 -107 13 -123 51
-30 71 -4 129 64 148 45 12 84 -2 114 -43z"/>
<path d="M10341 6754 c-176 -37 -286 -104 -391 -240 -52 -67 -91 -193 -94
-304 -2 -48 2 -78 18 -165 23 -118 116 -263 222 -346 30 -24 151 -79 172 -79
10 0 22 -3 25 -6 8 -8 77 -16 137 -16 115 0 198 23 300 82 71 42 190 152 190
176 0 4 6 15 13 23 20 23 56 114 63 158 20 120 0 274 -51 390 -26 57 -86 144
-128 184 -30 29 -137 101 -137 93 0 -3 -6 -2 -12 4 -24 19 -113 44 -178 49
-36 2 -69 6 -75 7 -5 2 -39 -3 -74 -10z m199 -118 c76 -12 183 -78 253 -156
36 -40 81 -139 95 -205 9 -44 9 -181 0 -209 -5 -17 -11 -40 -13 -50 -6 -24
-59 -112 -90 -148 -38 -44 -134 -107 -189 -124 -100 -30 -177 -35 -265 -17
-169 35 -304 168 -351 347 -18 65 -19 183 -3 224 7 17 11 32 8 32 -3 0 9 28
26 62 65 128 202 225 345 242 20 3 38 6 40 8 4 5 100 1 144 -6z"/>
<path d="M223 6721 c-73 -53 -123 -124 -174 -246 -7 -16 -14 -37 -15 -45 -2
-9 -10 -43 -17 -76 -23 -99 -13 -238 25 -339 17 -45 70 -125 109 -165 81 -84
160 -130 289 -166 45 -13 220 -13 269 -1 53 14 119 42 168 73 57 36 163 141
163 161 0 7 4 13 9 13 15 0 70 136 87 215 10 47 12 255 2 261 -4 3 -8 14 -8
24 0 11 -10 44 -22 75 -18 41 -29 56 -48 60 -14 3 -36 8 -50 11 -14 3 -38 7
-55 10 -16 3 -37 7 -45 10 -8 3 -26 8 -40 10 -14 3 -41 9 -60 14 -120 31 -142
30 -152 -5 -16 -55 -17 -64 -5 -72 13 -10 203 -59 263 -68 12 -2 30 -7 40 -13
19 -10 26 -12 43 -12 18 0 44 -118 42 -189 -3 -106 -46 -238 -99 -303 -108
-132 -229 -186 -397 -177 -35 2 -169 40 -185 53 -8 6 -27 18 -42 25 -75 38
-162 156 -192 261 -17 60 -18 233 -1 260 5 8 11 24 12 34 11 67 84 170 167
234 l29 22 -27 40 c-14 22 -30 40 -35 40 -4 0 -26 -13 -48 -29z"/>
<path d="M9950 5217 c-6 -23 -13 -49 -16 -57 -3 -12 28 -23 149 -53 83 -21
160 -41 169 -43 14 -4 15 -10 7 -32 -6 -15 -10 -28 -9 -30 2 -3 -29 -128 -38
-152 -3 -8 -6 -21 -8 -29 -18 -91 -38 -138 -62 -148 -67 -30 -87 -37 -127 -48
-16 -4 -32 -11 -35 -14 -3 -4 -36 -17 -75 -31 -90 -31 -158 -60 -152 -66 3 -3
-2 -26 -9 -51 -8 -26 -13 -48 -11 -50 2 -1 68 20 148 48 241 85 282 99 284 97
1 -2 7 -30 15 -63 14 -67 61 -147 110 -188 108 -91 286 -118 405 -61 70 32
153 118 191 196 25 50 91 266 121 393 9 40 11 50 13 50 3 0 12 49 14 69 1 16
-18 24 -124 53 -222 59 -395 105 -410 108 -8 2 -15 4 -15 5 0 1 -10 3 -23 6
-13 2 -62 15 -110 28 -99 28 -319 87 -342 91 -8 2 -15 4 -15 5 0 1 -8 3 -17 5
-13 2 -20 -7 -28 -38z m615 -242 c55 -14 105 -28 110 -29 6 -2 24 -6 40 -10
35 -9 164 -45 182 -51 11 -4 8 -20 -57 -260 -41 -156 -102 -240 -199 -274
-131 -46 -289 17 -347 138 -21 43 -28 174 -13 223 18 57 60 212 65 242 3 16 9
39 14 51 10 25 -12 28 205 -30z"/>
<path d="M351 4637 c-6 -29 -13 -70 -17 -92 -11 -78 -11 -79 -52 -46 -20 16
-57 48 -82 70 -25 22 -48 41 -51 41 -3 0 -16 -12 -30 -26 l-24 -25 36 -32 c20
-18 50 -43 68 -57 18 -14 41 -32 52 -41 23 -19 32 -14 -101 -61 -47 -17 -87
-32 -89 -34 -2 -2 2 -16 8 -32 l12 -29 108 38 108 37 -20 -91 c-27 -130 -27
-129 12 -139 38 -10 39 -10 45 23 2 13 5 24 6 24 1 0 3 9 4 20 12 85 18 120
24 131 5 9 26 -5 68 -44 115 -107 101 -100 129 -68 l24 28 -28 27 c-44 40 -73
64 -108 89 -35 25 -41 38 -20 40 10 1 186 61 194 67 2 1 -3 16 -10 34 -14 38
-13 38 -137 -8 -47 -17 -86 -31 -87 -31 -1 0 0 10 3 23 2 12 7 38 10 57 3 19
7 42 10 50 9 26 17 105 9 98 -3 -3 -19 -2 -35 2 -28 8 -29 7 -39 -43z"/>
<path d="M9556 4157 c-15 -17 -35 -42 -44 -55 -30 -41 -301 -395 -352 -460
-47 -59 -61 -92 -42 -92 5 0 18 -9 31 -21 28 -26 42 -21 83 34 52 70 231 301
243 313 5 6 19 23 30 38 51 71 88 116 95 116 7 0 131 -91 156 -115 6 -5 48
-36 93 -68 l81 -59 -63 -80 c-34 -43 -82 -105 -106 -136 -24 -31 -76 -99 -117
-149 l-74 -93 41 -29 c47 -34 41 -37 109 54 24 33 50 66 56 75 12 14 64 83
169 223 28 36 54 66 58 67 7 0 108 -72 172 -123 6 -4 37 -28 70 -53 33 -25 63
-49 68 -53 6 -6 -108 -164 -165 -231 -7 -8 -33 -41 -58 -74 -25 -33 -56 -74
-70 -92 -14 -18 -40 -53 -58 -78 l-33 -45 42 -28 41 -27 22 26 c11 14 30 38
41 54 11 15 29 39 41 53 20 25 48 62 256 334 54 70 98 131 98 135 0 4 -12 16
-26 27 -15 11 -51 38 -79 60 -29 22 -65 49 -81 60 -15 11 -33 26 -40 33 -7 6
-15 12 -18 12 -3 0 -16 9 -28 19 -13 11 -93 72 -178 135 -85 63 -159 119 -165
124 -16 13 -249 187 -261 195 -7 4 -23 -8 -38 -26z"/>
<path d="M1542 3875 l-32 -33 181 -184 c99 -101 205 -208 236 -239 l55 -57
-49 -48 c-114 -112 -242 -234 -246 -234 -4 0 -161 157 -346 347 l-60 61 -35
-34 c-20 -19 -36 -38 -36 -41 0 -3 38 -45 84 -92 46 -47 134 -138 195 -201
l111 -115 -132 -134 c-73 -75 -134 -137 -135 -139 -1 -2 -45 41 -98 95 -232
235 -359 363 -361 363 -1 0 -18 -16 -38 -35 l-36 -34 145 -148 c80 -81 200
-205 267 -274 l121 -126 116 113 c64 62 150 145 193 186 297 285 488 473 486
480 -4 11 -541 558 -547 558 -3 -1 -21 -16 -39 -35z"/>
<path d="M2349 3162 c-2 -9 -2 -2 5 -92 3 -41 8 -91 11 -110 2 -19 6 -61 9
-92 4 -32 9 -83 12 -112 l5 -55 -28 8 c-67 18 -184 -5 -249 -50 -134 -92 -204
-264 -164 -407 21 -79 130 -221 181 -237 10 -4 19 -11 19 -16 0 -5 4 -9 10 -9
5 0 55 -27 111 -60 55 -33 102 -60 104 -60 2 0 42 -22 90 -50 48 -27 90 -50
94 -50 7 0 67 97 122 195 9 17 42 72 73 124 31 51 56 95 56 98 0 2 17 32 38
66 22 34 61 100 88 147 26 47 52 87 56 88 4 2 8 8 8 13 0 5 28 57 61 115 34
57 60 106 58 108 -2 1 -25 15 -51 29 l-47 27 -15 -22 c-9 -12 -16 -28 -16 -34
0 -7 -4 -14 -8 -16 -9 -4 -102 -167 -102 -179 0 -5 -4 -9 -9 -9 -5 0 -12 -11
-15 -24 l-6 -24 -37 19 c-21 11 -45 23 -53 29 -49 30 -190 109 -217 121 -38
16 -43 26 -49 99 -2 30 -7 73 -9 95 -3 22 -8 73 -11 114 -4 41 -8 81 -9 90 -2
9 -4 25 -4 37 -1 14 -19 33 -56 57 -30 19 -56 32 -56 29z m17 -566 c51 -9 109
-33 154 -61 23 -15 63 -38 88 -52 26 -14 78 -43 115 -65 l68 -40 -22 -36 c-12
-20 -42 -73 -68 -117 -25 -44 -48 -82 -52 -85 -3 -3 -9 -15 -13 -27 -4 -13
-12 -23 -17 -23 -5 0 -9 -5 -9 -11 0 -6 -23 -49 -51 -95 l-50 -84 -41 26 c-35
22 -84 51 -153 88 -11 6 -22 13 -25 16 -3 3 -25 16 -50 29 -97 52 -183 164
-181 236 2 78 33 185 53 185 5 0 8 5 8 11 0 21 112 98 143 99 9 0 17 4 17 9 0
9 30 8 86 -3z"/>
<path d="M8955 2527 c-6 -12 -26 -57 -45 -99 -19 -43 -37 -78 -40 -78 -3 0
-29 39 -59 88 -30 48 -56 89 -57 90 -4 6 -64 -31 -64 -39 0 -3 25 -44 55 -89
30 -46 53 -86 49 -89 -3 -3 -45 -7 -92 -8 -123 -2 -119 -1 -124 -21 -7 -25 9
-62 24 -57 23 7 198 14 198 7 0 -4 -10 -23 -22 -42 -12 -19 -28 -46 -36 -60
-7 -13 -22 -38 -32 -56 l-19 -31 33 -16 c41 -19 39 -20 100 106 l37 79 18 -24
c10 -13 39 -56 65 -97 26 -41 51 -70 54 -65 4 6 17 17 29 25 l22 15 -59 90
-59 89 26 5 c15 3 66 5 115 5 l88 -1 0 38 0 38 -109 -5 c-68 -3 -112 -1 -116
5 -3 6 -1 10 4 10 6 0 11 4 11 9 0 5 20 44 44 87 l44 79 -26 17 c-35 23 -45
22 -57 -5z"/>
<path d="M7355 2532 c-59 -6 -161 -33 -205 -54 -63 -30 -190 -133 -189 -154 0
-11 -40 -54 -50 -54 -7 0 -47 20 -91 45 -45 25 -86 42 -94 39 -9 -3 -14 -10
-11 -14 3 -4 -2 -13 -10 -20 -28 -23 -17 -46 38 -76 28 -16 70 -38 92 -50 43
-24 45 -32 31 -109 -3 -22 -8 -75 -10 -117 l-3 -78 38 0 c22 0 42 -1 47 -2 4
-2 10 46 13 105 3 59 9 110 12 113 3 4 34 -9 69 -29 59 -32 84 -46 233 -127
33 -18 64 -36 68 -40 5 -4 -13 -35 -40 -68 -78 -97 -106 -157 -106 -227 0 -65
18 -111 61 -157 14 -16 32 -28 39 -28 7 0 13 -4 13 -9 0 -11 83 -26 130 -23
168 11 319 157 304 294 -9 78 -58 142 -161 210 l-52 34 44 50 c25 27 47 57 51
67 3 9 9 17 13 17 5 0 21 28 37 63 24 51 29 75 29 138 -1 63 -5 83 -27 120
-33 55 -71 90 -123 112 -44 19 -143 34 -190 29z m93 -113 c73 -24 122 -92 127
-178 5 -70 -29 -141 -112 -231 l-32 -35 -63 34 c-142 77 -176 96 -241 132 -38
22 -71 39 -73 39 -3 0 -16 7 -29 16 -21 14 -23 19 -13 38 50 96 159 170 282
193 11 2 21 5 23 7 7 6 98 -4 131 -15z m120 -650 c43 -43 67 -105 57 -149 -7
-30 -66 -100 -88 -104 -6 -1 -18 -5 -25 -10 -7 -4 -36 -10 -65 -12 -66 -7
-115 17 -139 66 -34 72 -11 142 81 248 l45 51 47 -26 c26 -14 65 -43 87 -64z"/>
<path d="M3650 2463 c-30 -7 -59 -15 -65 -16 -21 -5 -110 -51 -129 -66 -195
-157 -273 -339 -242 -569 27 -198 207 -392 411 -442 28 -6 59 -14 70 -17 44
-12 202 -10 259 4 196 46 358 206 412 408 60 226 -17 443 -209 589 -45 34
-146 83 -198 96 -24 6 -53 13 -64 16 -47 12 -193 10 -245 -3z m234 -97 c42 -7
102 -29 155 -57 55 -30 141 -106 141 -125 0 -8 3 -14 8 -14 9 0 44 -67 57
-110 20 -66 23 -94 21 -158 -3 -84 -8 -108 -27 -144 -7 -13 -11 -24 -9 -26 8
-9 -56 -105 -101 -150 -46 -46 -133 -99 -178 -107 -9 -2 -16 -4 -16 -5 0 -6
-53 -12 -128 -15 -85 -3 -115 2 -184 32 -17 7 -35 13 -41 13 -12 0 -99 66
-137 105 -88 89 -134 245 -112 375 7 44 13 73 17 78 2 1 4 7 5 12 1 6 4 12 5
15 1 3 3 8 4 13 4 22 70 115 108 152 51 49 162 105 233 118 49 8 118 8 179 -2z"/>
<path d="M4815 2250 c-19 -5 -20 -16 -22 -155 -1 -82 -5 -265 -8 -405 -3 -140
-6 -320 -8 -400 l-2 -145 51 -3 c49 -3 53 -1 65 28 8 16 17 30 21 30 5 0 8 4
8 10 0 8 113 198 185 310 12 19 51 82 86 140 35 58 66 107 69 110 4 3 9 12 12
21 4 9 27 49 53 89 l46 73 51 -89 c27 -49 61 -109 75 -134 14 -25 39 -70 56
-100 16 -30 33 -59 37 -65 4 -5 19 -30 32 -55 14 -25 35 -62 47 -82 11 -21 30
-54 41 -73 54 -94 65 -114 96 -171 l34 -60 47 1 c29 0 48 5 48 12 0 6 3 15 7
18 4 4 3 15 -2 25 -5 10 -7 20 -4 23 5 5 8 108 18 758 2 131 6 242 10 247 9
15 -13 27 -54 29 -66 3 -65 5 -67 -129 -2 -68 -4 -233 -7 -368 -2 -135 -5
-276 -5 -315 l-1 -70 -38 65 c-21 36 -52 90 -69 120 -60 108 -143 255 -152
270 -6 8 -21 35 -34 60 -14 25 -34 61 -46 80 -11 19 -30 53 -41 76 -30 59 -56
84 -82 79 -13 -3 -27 -12 -33 -21 -5 -9 -27 -42 -47 -75 -21 -32 -38 -61 -38
-65 0 -4 -10 -21 -23 -38 -13 -17 -27 -38 -30 -46 -4 -8 -20 -35 -36 -60 -16
-25 -53 -83 -81 -130 -28 -47 -64 -105 -80 -130 -16 -25 -44 -71 -63 -103 -19
-33 -37 -55 -39 -50 -3 4 -4 64 -2 133 12 518 14 730 7 731 -31 4 -72 4 -88
-1z"/>
</g>
</svg>
