<svg width="69" height="55" viewBox="0 0 69 55" fill="none" xmlns="http://www.w3.org/2000/svg">
<g clip-path="url(#clip0_1374_36)">
<path d="M39.1893 16.7301L37.878 15.7384C37.673 15.574 37.4108 15.4964 37.1484 15.5224C36.886 15.5484 36.6446 15.6759 36.4765 15.8773L18.3281 36.5246L18.6084 36.832L23.103 32.7264C22.9532 32.6666 22.8292 32.5568 22.7527 32.416C22.6761 32.2751 22.6518 32.1122 22.6839 31.9554C22.7161 31.7987 22.8026 31.658 22.9285 31.5579C23.0545 31.4578 23.2118 31.4045 23.3732 31.4074C23.5188 31.4074 23.6606 31.4536 23.7777 31.5393C23.8948 31.6249 23.9811 31.7456 24.0239 31.8834L29.9499 26.4389C30.0407 26.3665 30.1537 26.327 30.2702 26.327C30.3868 26.327 30.4998 26.3665 30.5906 26.4389L30.8909 26.6571C30.9925 26.7292 31.1176 26.7611 31.2418 26.7464C31.3659 26.7317 31.4799 26.6716 31.5616 26.5778L39.3094 17.9698C39.3918 17.8843 39.4546 17.7823 39.4936 17.6707C39.5326 17.559 39.5469 17.4403 39.5355 17.3227C39.5241 17.2051 39.4873 17.0913 39.4275 16.9891C39.3678 16.8868 39.2865 16.7985 39.1893 16.7301V16.7301Z" fill="#303030"/>
<path d="M47.7186 22.5415C43.747 25.3411 39.2979 27.4072 34.5853 28.6405C29.908 29.819 25.1219 30.5234 20.3008 30.7429C20.3979 31.4472 20.5724 32.1389 20.8213 32.8057C23.5441 35.2453 44.0449 31.0801 48.0489 26.2604C48.8998 25.2588 47.7186 22.5415 47.7186 22.5415ZM23.3739 32.7263C23.2393 32.7263 23.1077 32.6868 22.9957 32.6127C22.8838 32.5386 22.7965 32.4333 22.745 32.31C22.6935 32.1868 22.68 32.0512 22.7063 31.9204C22.7326 31.7896 22.7974 31.6694 22.8926 31.5751C22.9878 31.4808 23.1091 31.4166 23.2411 31.3906C23.3731 31.3645 23.51 31.3779 23.6344 31.4289C23.7588 31.48 23.8651 31.5664 23.9399 31.6773C24.0147 31.7882 24.0546 31.9186 24.0546 32.052C24.0559 32.1409 24.0393 32.2292 24.0055 32.3116C23.9718 32.394 23.9217 32.4689 23.8582 32.5318C23.7947 32.5947 23.7192 32.6443 23.636 32.6777C23.5528 32.7111 23.4637 32.7277 23.3739 32.7263V32.7263Z" fill="#303030"/>
<path d="M4.00435 21.1133L4.16451 20.4291L6.76715 21.0142C6.98187 21.4071 7.11463 21.8388 7.15755 22.2836C7.20722 22.7546 7.17677 23.2307 7.06745 23.6918C6.93787 24.3317 6.64103 24.9267 6.20658 25.4173C5.79325 25.8806 5.26029 26.2234 4.66502 26.409C4.05149 26.5965 3.39894 26.6204 2.7731 26.4785C2.14588 26.3443 1.56774 26.0424 1.1014 25.6058C0.642204 25.1863 0.312466 24.6464 0.150436 24.0488C-0.029312 23.3996 -0.029312 22.7145 0.150436 22.0654C0.258023 21.5795 0.451168 21.1163 0.721015 20.6968C0.976413 20.3153 1.31947 19.9993 1.72203 19.7745L2.0824 20.32C1.73735 20.5299 1.44117 20.8099 1.2134 21.1415C0.985627 21.4731 0.831454 21.8489 0.761055 22.2439C0.636916 22.7569 0.647254 23.2929 0.791086 23.8009C0.925592 24.2832 1.19239 24.7191 1.56187 25.0603C1.94163 25.424 2.41677 25.6748 2.93326 25.7843C3.43409 25.9236 3.96398 25.9236 4.46481 25.7843C4.94459 25.6274 5.37551 25.3507 5.71608 24.981C6.06608 24.5816 6.30728 24.1003 6.41679 23.5827C6.58149 22.9547 6.53941 22.2911 6.29667 21.6885L4.00435 21.1133Z" fill="#303030"/>
<path d="M9.6694 14.8756L7.33704 17.9598L8.33805 19.7349L7.87759 20.3498L4.17383 13.6558L4.60426 13.0707L12.1419 14.6772L11.6714 15.2921L9.6694 14.8756ZM9.00873 14.7169L5.00467 13.8244L7.0067 17.3846L9.00873 14.7169Z" fill="#303030"/>
<path d="M9.00879 8.4791L9.6094 8.03284L13.4233 13.0905L16.5665 10.76L16.9468 11.2658L13.2131 14.0327L9.00879 8.4791Z" fill="#303030"/>
<path d="M15.3154 4.34365L15.9861 4.04614L18.6288 9.7782L22.2024 8.17164L22.4627 8.74683L18.2184 10.6608L15.3154 4.34365Z" fill="#303030"/>
<path d="M28.5088 6.62462L28.6589 7.2494L23.834 8.37003L22.2324 1.60659L26.9172 0.525635L27.0573 1.14049L23.0533 2.06278L23.6238 4.46271L27.1474 3.63959L27.2976 4.25445L23.764 5.06765L24.3646 7.57666L28.5088 6.62462Z" fill="#303030"/>
<path d="M35.3862 6.8725L33.7145 4.69075C33.5278 4.70098 33.3406 4.70098 33.1539 4.69075L31.272 4.75025L31.3421 6.95184H30.6013L30.3711 0.00989668L33.0338 -2.03814e-05C33.7866 -0.0689024 34.5395 0.131631 35.1559 0.565252C35.4157 0.772512 35.6246 1.03553 35.7668 1.33445C35.909 1.63337 35.9808 1.96039 35.9768 2.29082C36.006 2.78091 35.8762 3.26741 35.6064 3.67921C35.3187 4.07446 34.9123 4.3695 34.4452 4.52216L36.197 6.84275L35.3862 6.8725ZM34.6855 3.60979C34.8654 3.4465 35.005 3.24442 35.0935 3.01915C35.182 2.79389 35.2171 2.55148 35.196 2.31065C35.2012 2.06855 35.1507 1.82845 35.0483 1.60853C34.946 1.38861 34.7946 1.19463 34.6054 1.04127C34.144 0.731342 33.5892 0.587801 33.0338 0.634671L31.1319 0.704091L31.252 4.17506L33.1139 4.11556C33.6816 4.13637 34.2385 3.95718 34.6855 3.60979V3.60979Z" fill="#303030"/>
<path d="M40.6805 5.02795L40.3202 7.39813L39.5894 7.28904L39.9598 4.95853L37.8877 0L38.6685 0.119005L40.4403 4.34367L43.4433 0.84295L44.144 0.991706L40.6805 5.02795Z" fill="#303030"/>
<path d="M50.5809 4.61138L51.4518 5.732L51.0714 6.02951L50.2005 4.87914L49.65 6.17827L49.2295 5.99976L49.7901 4.70063L48.3486 4.88905V4.41303L49.7701 4.25436L48.8892 3.13373L49.2796 2.83622L50.0504 3.96677L50.5909 2.65771L51.0213 2.83622L50.5108 4.16511L51.9523 3.96677V4.4527L50.5809 4.61138Z" fill="#303030"/>
<path d="M53.9256 12.6046C53.6892 12.2435 53.5417 11.8325 53.4951 11.4046L54.0857 11.1468C54.13 11.5399 54.2598 11.9189 54.4661 12.2575C54.6897 12.6373 54.9815 12.9733 55.327 13.2492C55.6838 13.5877 56.1391 13.8063 56.6283 13.874C56.8051 13.8902 56.9832 13.8635 57.1471 13.7961C57.3111 13.7287 57.456 13.6227 57.5693 13.4872C57.6523 13.3965 57.7156 13.2898 57.7552 13.1738C57.7948 13.0578 57.8099 12.9349 57.7995 12.8129C57.7664 12.5712 57.6847 12.3385 57.5592 12.1286C57.3711 11.8242 57.1673 11.5296 56.9486 11.246C56.6821 10.9001 56.4412 10.5355 56.2279 10.1551C56.0648 9.87039 55.9754 9.55014 55.9676 9.22289C55.9669 8.85539 56.1064 8.50118 56.358 8.23118C56.5762 7.9695 56.864 7.77366 57.1889 7.66591C57.5518 7.56205 57.937 7.56205 58.3 7.66591C58.7676 7.81742 59.1999 8.06021 59.5713 8.37994C59.8795 8.63389 60.1521 8.92737 60.3821 9.25264C60.5947 9.55428 60.7539 9.88966 60.8526 10.2443L60.282 10.5419C60.1825 10.2113 60.0341 9.89712 59.8416 9.60965C59.6498 9.35295 59.4242 9.12281 59.1709 8.92538C58.8194 8.58844 58.3655 8.3758 57.8796 8.32044C57.701 8.30564 57.5215 8.33506 57.3573 8.40603C57.193 8.47701 57.0492 8.58731 56.9386 8.72704C56.8535 8.81638 56.7888 8.92289 56.7491 9.03928C56.7093 9.15567 56.6955 9.27919 56.7084 9.40139C56.7318 9.65148 56.8141 9.89263 56.9486 10.1055C57.0888 10.3336 57.289 10.6311 57.5592 10.9881C57.8272 11.3261 58.0681 11.6842 58.28 12.0592C58.4465 12.343 58.5394 12.6633 58.5502 12.9914C58.5509 13.3589 58.4115 13.7131 58.1598 13.9831C57.9409 14.2484 57.6487 14.4448 57.319 14.5483C56.9567 14.6567 56.5702 14.6567 56.2079 14.5483C55.737 14.3973 55.3014 14.1545 54.9266 13.8343C54.5225 13.4859 54.1836 13.0696 53.9256 12.6046V12.6046Z" fill="#303030"/>
<path d="M63.9946 14.0525L62.5832 12.0691L63.1037 11.7021L66.357 16.3037L65.8365 16.6706L64.425 14.6872L59.1997 18.3069L58.7793 17.702L63.9946 14.0525Z" fill="#303030"/>
<path d="M61.7529 22.2043C61.9316 21.605 62.2788 21.0684 62.7539 20.6573C63.2187 20.2449 63.7849 19.961 64.3956 19.8342C65.0181 19.6926 65.6673 19.7165 66.2775 19.9036C66.8664 20.0965 67.3943 20.4383 67.809 20.8953C68.2402 21.3868 68.5336 21.9818 68.6599 22.6209C68.8257 23.2483 68.8257 23.9074 68.6599 24.5349C68.4763 25.132 68.1299 25.6673 67.6589 26.0819C67.1812 26.5054 66.6011 26.7993 65.9749 26.9348C65.3486 27.0704 64.6976 27.043 64.0852 26.8554C63.4918 26.6719 62.9616 26.3286 62.5537 25.8637C62.1244 25.3748 61.8312 24.7835 61.7028 24.1481C61.5499 23.5068 61.5672 22.8371 61.7529 22.2043V22.2043ZM63.0642 25.358C63.3984 25.7351 63.8315 26.0131 64.3155 26.1613C64.8143 26.3046 65.3415 26.3216 65.8487 26.2107C66.3558 26.0998 66.8268 25.8646 67.2184 25.5266C67.5879 25.1898 67.8607 24.7621 68.0092 24.2869C68.1488 23.7852 68.1625 23.2573 68.0491 22.7491C67.9357 22.241 67.6986 21.768 67.3586 21.3713C67.0097 20.9924 66.5633 20.7148 66.0673 20.568C65.5622 20.4351 65.0308 20.4351 64.5257 20.568C64.016 20.6649 63.5442 20.9021 63.1643 21.2523C62.7914 21.5903 62.5181 22.0221 62.3735 22.5019C62.2376 23.0054 62.2376 23.5355 62.3735 24.039C62.4831 24.531 62.7213 24.9858 63.0642 25.358V25.358Z" fill="#303030"/>
<path d="M60.9919 33.718L63.5846 32.7263C63.5846 32.5478 63.6446 32.3693 63.6947 32.1809L64.1852 30.3859L62.063 29.8405L62.2532 29.1364L69.0201 30.9313L68.3394 33.4404C68.1861 34.1725 67.7744 34.8264 67.1782 35.2849C66.9043 35.4734 66.5901 35.5965 66.2601 35.6447C65.9302 35.6929 65.5935 35.6648 65.2763 35.5626C64.7932 35.4588 64.3604 35.1949 64.0491 34.8145C63.7379 34.434 63.567 33.9598 63.5646 33.4701L60.8018 34.4618L60.9919 33.718ZM64.3453 33.9957C64.4626 34.2065 64.6217 34.3916 64.813 34.5399C65.0043 34.6882 65.2239 34.7966 65.4586 34.8587C65.6933 34.9207 65.9383 34.9351 66.1787 34.901C66.4192 34.8669 66.6502 34.785 66.8579 34.6602C67.2997 34.3086 67.6013 33.8131 67.7088 33.2619L68.1893 31.4768L64.7958 30.5743L64.3153 32.3594C64.1306 32.8913 64.1413 33.4708 64.3453 33.9957V33.9957Z" fill="#303030"/>
<path d="M57.3982 40.1045L56.8877 39.7178L59.8907 35.8005L65.4764 39.9955L62.5735 43.7937L62.0629 43.4069L64.5154 40.2037L62.5134 38.7062L60.3212 41.5723L59.8207 41.1954L62.0629 38.3294L59.9908 36.7724L57.3982 40.1045Z" fill="#303030"/>
<path d="M55.0565 48.0085L53.625 48.0879V47.6118L55.0565 47.6019L54.2857 46.4218L54.6761 46.1739L55.4368 47.3639L56.0575 46.035L56.4879 46.2631L55.8072 47.5127L57.2387 47.4333V47.9193H55.7872L56.558 49.0994L56.1676 49.3473L55.4068 48.1573L54.7461 49.4465L54.3257 49.2085L55.0565 48.0085Z" fill="#303030"/>
<path d="M42.0425 47.2151L43.2537 47.8795C43.4568 47.4931 43.7402 47.1536 44.0853 46.8835C44.4303 46.6135 44.8293 46.4189 45.2557 46.3126C45.6536 46.1897 46.072 46.1459 46.487 46.1837C46.8471 46.2111 47.1929 46.3344 47.488 46.5407C47.7547 46.7399 47.951 47.0176 48.0486 47.3341C48.1692 47.7256 48.148 48.1465 47.9885 48.5241C47.7373 49.0372 47.3987 49.5035 46.9875 49.9026C47.3175 50.0783 47.6236 50.2949 47.8984 50.5472C48.0872 50.7405 48.2277 50.9748 48.3088 51.2315C48.3601 51.4316 48.3633 51.6408 48.3181 51.8423C48.2729 52.0438 48.1806 52.232 48.0486 52.3918C47.7814 52.7732 47.3826 53.0448 46.9274 53.1554C46.5277 53.3064 46.0859 53.3064 45.6862 53.1554C45.5084 53.0796 45.3509 52.9641 45.2258 52.8178C45.1007 52.6716 45.0116 52.4986 44.9655 52.3124C44.8605 51.9851 44.8856 51.6304 45.0355 51.3207C45.2653 50.8699 45.566 50.4581 45.9264 50.1009L43.514 48.772C43.4219 49.2391 43.4017 49.7172 43.4539 50.1902H42.8433C42.8022 49.6077 42.8701 49.0227 43.0435 48.4646L41.7822 47.7704L42.0425 47.2151ZM43.7843 48.2068L46.4369 49.6646C46.7846 49.3357 47.0724 48.9499 47.2878 48.5241C47.3978 48.2366 47.3978 47.9191 47.2878 47.6316C47.2424 47.4598 47.1546 47.3018 47.0323 47.172C46.91 47.0422 46.757 46.9445 46.5871 46.8878C46.1715 46.7487 45.7214 46.7487 45.3058 46.8878C44.9662 46.9766 44.6504 47.138 44.3806 47.3607C44.1108 47.5835 43.8936 47.8621 43.7442 48.177L43.7843 48.2068ZM47.5481 52.1736C47.6135 52.064 47.6545 51.9418 47.6683 51.8152C47.6821 51.6887 47.6684 51.5606 47.6282 51.4397C47.5668 51.2439 47.4567 51.0665 47.3078 50.924C47.053 50.7111 46.7742 50.5281 46.477 50.3786C46.1735 50.6759 45.9079 51.009 45.6862 51.3703C45.5652 51.5956 45.5365 51.8585 45.6061 52.1042C45.6379 52.2176 45.6935 52.3232 45.7694 52.4138C45.8454 52.5044 45.9398 52.578 46.0466 52.6298C46.3014 52.7249 46.5825 52.7249 46.8374 52.6298C47.1095 52.5579 47.3471 52.3927 47.508 52.1637L47.5481 52.1736Z" fill="#303030"/>
<path d="M29.8398 54.8611L29.98 47.9192H30.6907L30.5806 53.4727L33.4235 48.8514H33.7738L36.4365 53.5521L36.5366 48.0283H37.2474L37.1172 54.9702H36.5066L33.5636 49.7836L30.4505 54.871L29.8398 54.8611Z" fill="#303030"/>
<path d="M26.3569 47.6019C26.8147 48.0341 27.1422 48.5838 27.3031 49.1896C27.4639 49.7955 27.4517 50.4337 27.2678 51.0332C27.1033 51.6469 26.7748 52.2053 26.3169 52.6496C25.8718 53.083 25.3138 53.3852 24.7052 53.5223C24.0633 53.6658 23.395 53.6453 22.7633 53.4628C22.1336 53.3105 21.5543 52.9996 21.0815 52.5604C20.6306 52.1337 20.3083 51.5912 20.1506 50.9935C19.9967 50.3756 20.008 49.7287 20.1836 49.1165C20.3591 48.5043 20.6928 47.9481 21.1516 47.5027C21.5888 47.0704 22.1349 46.7622 22.7332 46.6101C23.3719 46.4671 24.0368 46.4875 24.6652 46.6697C25.3013 46.8294 25.8844 47.1507 26.3569 47.6019V47.6019ZM22.9434 47.2548C22.4538 47.3677 22.0062 47.6152 21.6521 47.9688C21.2834 48.3326 21.0206 48.7883 20.8914 49.2878C20.7518 49.7841 20.7518 50.3087 20.8914 50.8051C21.0094 51.2879 21.2627 51.7279 21.6221 52.0744C21.999 52.4396 22.4644 52.7026 22.9735 52.8381C23.4825 52.9665 24.016 52.9665 24.525 52.8381C25.0151 52.7187 25.4642 52.4722 25.8264 52.124C26.1931 51.7587 26.4556 51.3036 26.5871 50.8051C26.7271 50.3054 26.7271 49.7775 26.5871 49.2778C26.459 48.7968 26.2032 48.3585 25.8464 48.0085C25.4675 47.6428 24.9979 47.3828 24.485 47.2548C23.9806 47.1166 23.4478 47.1166 22.9434 47.2548V47.2548Z" fill="#303030"/>
<path d="M15.3655 42.6434L15.6358 45.3706C15.8075 45.4433 15.9746 45.5261 16.1363 45.6186L17.768 46.5508L18.8691 44.6269L19.5198 44.9938L16.0162 50.9738L13.7339 49.6746C13.0593 49.3389 12.5271 48.7765 12.2324 48.0879C12.1235 47.7777 12.0868 47.4471 12.125 47.1208C12.1631 46.7946 12.2751 46.4811 12.4526 46.2037C12.6853 45.769 13.0541 45.421 13.5037 45.212C13.9602 45.0246 14.4652 44.9864 14.9451 45.1029L14.6548 42.1873L15.3655 42.6434ZM14.2244 45.7772C13.9893 45.8357 13.7685 45.9405 13.5752 46.0854C13.382 46.2304 13.2202 46.4125 13.0997 46.6208C12.9791 46.8291 12.9022 47.0594 12.8736 47.2979C12.845 47.5363 12.8652 47.778 12.9331 48.0086C13.1677 48.5218 13.5745 48.9388 14.0842 49.1887L15.6959 50.111L17.4477 47.1359L15.836 46.2136C15.3728 45.8697 14.8024 45.6977 14.2244 45.7276V45.7772Z" fill="#303030"/>
<path d="M9.43938 37.9923L9.88984 37.546L13.3433 41.0666L8.33826 45.9061L5.00488 42.4946L5.46535 42.0484L8.29822 44.9342L10.01 43.2186L7.52744 40.66L8.00793 40.2038L10.5405 42.7822L12.4024 40.9872L9.43938 37.9923Z" fill="#303030"/>
<path d="M2.00202 34.0949L2.24226 32.7263L2.71274 32.7957L2.44246 34.204L3.77381 33.718L3.93398 34.1544L2.58261 34.6106L3.69373 35.5428L3.37341 35.8998L2.30232 34.9081L2.05207 36.3163L1.57158 36.227L1.85186 34.8188L0.510504 35.2948L0.360352 34.9081L1.70171 34.442L0.590585 33.5197L0.92092 33.1627L2.00202 34.0949Z" fill="#303030"/>
</g>
<defs>
<clipPath id="clip0_1374_36">
<rect width="69" height="55" fill="white"/>
</clipPath>
</defs>
</svg>
